<?xml version="1.0" standalone="no"?>
<!DOCTYPE svg PUBLIC "-//W3C//DTD SVG 20010904//EN"
 "http://www.w3.org/TR/2001/REC-SVG-20010904/DTD/svg10.dtd">
<svg version="1.0" xmlns="http://www.w3.org/2000/svg"
 width="1762.000000pt" height="486.000000pt" viewBox="0 0 1762.000000 486.000000"
 preserveAspectRatio="xMidYMid meet">

<g transform="translate(0.000000,486.000000) scale(0.100000,-0.100000)"
fill="#000000" stroke="none">
<path d="M435 4850 c-421 -84 -579 -607 -276 -911 296 -297 800 -159 906 248
19 73 19 193 0 266 -72 275 -353 452 -630 397z"/>
<path d="M1295 4801 c-11 -5 -29 -19 -40 -31 -19 -21 -20 -36 -20 -452 l0
-430 33 -29 32 -29 426 0 426 0 29 29 29 29 0 429 c0 466 1 452 -57 482 -26
13 -826 15 -858 2z"/>
<path d="M2470 4797 c-14 -7 -33 -28 -43 -47 -16 -32 -17 -70 -15 -448 l3
-414 33 -29 32 -29 426 0 426 0 29 29 29 29 0 427 c0 273 -4 433 -10 446 -26
47 -42 49 -477 49 -306 0 -414 -3 -433 -13z"/>
<path d="M5869 3640 c-116 -21 -212 -93 -237 -178 -21 -70 -15 -162 14 -220
35 -70 87 -112 226 -183 126 -65 168 -102 168 -150 0 -42 -15 -66 -52 -85 -47
-25 -182 -14 -273 21 -124 47 -115 52 -115 -58 l0 -96 54 -20 c124 -46 291
-52 406 -15 40 13 70 33 111 74 66 65 84 117 77 213 -10 124 -62 182 -252 279
-143 72 -166 93 -166 145 0 103 103 128 280 68 l69 -23 30 73 c17 41 31 78 31
84 0 10 -76 41 -145 59 -59 16 -173 22 -226 12z"/>
<path d="M10642 3635 c-173 -38 -283 -142 -326 -308 -34 -131 -28 -307 15
-422 63 -168 197 -260 394 -272 108 -6 188 7 272 46 159 75 237 227 236 461 0
178 -40 298 -129 387 -103 102 -288 146 -462 108z m251 -199 c81 -47 117 -137
117 -293 0 -116 -13 -179 -51 -238 -81 -128 -307 -128 -388 0 -38 59 -51 122
-51 237 0 123 21 197 74 254 52 57 101 75 188 71 49 -3 78 -11 111 -31z"/>
<path d="M16270 3618 c-16 -37 -340 -962 -340 -971 0 -4 50 -6 112 -5 l112 3
36 115 36 115 179 0 179 0 36 -115 36 -115 112 -3 c62 -1 112 1 112 5 0 5 -78
229 -173 498 l-174 490 -126 3 c-124 3 -127 2 -137 -20z m199 -358 c34 -106
59 -195 57 -197 -2 -2 -57 -2 -123 -1 l-119 3 47 157 c27 87 53 176 59 199 6
22 13 39 15 37 2 -2 31 -91 64 -198z"/>
<path d="M115 3621 c-11 -5 -29 -19 -40 -31 -19 -21 -20 -38 -23 -434 -1 -226
0 -422 3 -434 3 -13 18 -35 32 -48 l26 -24 429 0 430 0 29 29 29 29 0 426 0
426 -29 32 -29 33 -419 2 c-230 1 -427 -2 -438 -6z"/>
<path d="M1295 3621 c-11 -5 -29 -19 -40 -31 -19 -21 -20 -38 -23 -438 -2
-301 1 -424 9 -445 24 -58 15 -57 482 -57 l429 0 29 29 29 29 0 427 c0 273 -4
433 -10 446 -26 47 -42 49 -477 48 -224 0 -417 -4 -428 -8z"/>
<path d="M4082 3138 l3 -493 105 0 105 0 3 493 2 492 -110 0 -110 0 2 -492z"/>
<path d="M4542 3138 l3 -493 93 -3 94 -3 -4 374 -3 373 205 -357 c113 -196
212 -364 219 -373 11 -13 37 -16 142 -16 l129 0 0 495 0 495 -96 0 -96 0 4
-364 c1 -201 0 -359 -4 -353 -4 7 -99 170 -210 362 l-204 350 -137 3 -137 3 2
-493z"/>
<path d="M6332 3543 l3 -88 133 -3 132 -3 0 -404 0 -405 105 0 105 0 0 405 0
405 135 0 135 0 0 90 0 90 -375 0 -376 0 3 -87z"/>
<path d="M7230 3135 l0 -495 105 0 105 0 0 495 0 495 -105 0 -105 0 0 -495z"/>
<path d="M7590 3540 l0 -90 135 0 135 0 0 -405 0 -405 105 0 105 0 0 405 0
404 133 3 132 3 3 88 3 87 -376 0 -375 0 0 -90z"/>
<path d="M8482 3263 c4 -418 5 -424 84 -512 72 -80 182 -121 322 -121 174 0
315 79 376 209 20 44 21 62 24 419 l3 372 -105 0 -105 0 -3 -352 c-3 -403 -3
-403 -88 -445 -97 -50 -224 -21 -271 60 -24 42 -24 42 -27 390 l-3 347 -105 0
-105 0 3 -367z"/>
<path d="M9440 3540 l0 -90 130 0 130 0 2 -402 3 -403 105 0 105 0 3 402 2
402 133 3 132 3 3 88 3 87 -376 0 -375 0 0 -90z"/>
<path d="M11792 3138 l3 -493 105 0 105 0 3 193 2 192 165 0 165 0 0 90 0 90
-165 0 -165 0 0 125 0 125 175 0 175 0 0 85 0 85 -285 0 -285 0 2 -492z"/>
<path d="M12570 3135 l0 -495 283 2 282 3 3 88 3 87 -181 0 -180 0 0 125 0
125 165 0 165 0 0 90 0 90 -165 0 -165 0 0 105 0 105 180 0 180 0 0 85 0 85
-285 0 -285 0 0 -495z"/>
<path d="M13340 3134 l0 -497 208 6 c147 4 224 10 266 22 187 52 297 168 338
358 16 77 5 251 -21 318 -49 128 -143 219 -269 261 -59 19 -93 22 -294 26
l-228 4 0 -498z m451 298 c56 -24 96 -65 123 -122 18 -38 21 -64 21 -165 0
-113 -2 -123 -30 -180 -52 -105 -132 -145 -285 -145 l-70 0 0 321 0 322 99 -6
c66 -3 113 -11 142 -25z"/>
<path d="M14362 3138 l3 -493 283 -3 282 -2 0 90 0 90 -175 0 -175 0 0 125 0
125 165 0 166 0 -3 88 -3 87 -162 3 -163 2 0 105 0 105 175 0 175 0 0 85 0 85
-285 0 -285 0 2 -492z"/>
<path d="M15140 3135 l0 -496 103 3 102 3 3 188 2 187 54 0 54 0 118 -190 119
-190 113 0 c101 0 113 2 108 16 -3 9 -67 106 -142 216 -104 153 -133 203 -123
209 8 5 17 9 22 9 17 0 100 86 120 125 17 32 22 57 22 125 0 105 -27 167 -93
217 -75 57 -122 66 -364 71 l-218 4 0 -497z m404 298 c43 -20 61 -54 60 -109
-2 -87 -55 -124 -179 -124 l-75 0 0 131 0 132 80 -7 c44 -3 96 -14 114 -23z"/>
<path d="M17010 3135 l0 -495 305 0 305 0 0 90 0 90 -200 0 -200 0 0 405 0
405 -105 0 -105 0 0 -495z"/>
<path d="M110 2433 c-19 -10 -40 -29 -47 -43 -10 -19 -13 -127 -13 -433 0
-435 2 -451 49 -477 13 -6 173 -10 446 -10 l427 0 29 29 29 29 0 426 0 426
-29 32 -29 33 -414 3 c-378 2 -416 1 -448 -15z"/>
<path d="M1293 2436 c-63 -28 -63 -32 -63 -481 0 -433 2 -449 49 -475 13 -6
173 -10 446 -10 l427 0 29 29 29 29 0 426 0 426 -29 32 -29 33 -414 2 c-336 2
-419 0 -445 -11z"/>
<path d="M2472 2435 c-60 -26 -62 -39 -62 -479 0 -222 4 -406 9 -419 6 -14 20
-35 32 -46 22 -21 30 -21 452 -21 l429 0 29 29 29 29 0 427 c0 469 1 462 -62
484 -20 7 -169 11 -427 11 -321 -1 -402 -4 -429 -15z"/>
<path d="M10900 2104 l0 -145 -32 24 c-129 96 -307 39 -352 -112 -23 -79 -21
-207 4 -275 50 -133 202 -184 328 -110 23 14 42 29 42 34 0 6 4 10 9 10 6 0
11 -15 13 -32 3 -30 6 -33 41 -36 l37 -3 0 395 0 396 -45 0 -45 0 0 -146z
m-70 -174 c52 -36 65 -75 65 -195 0 -91 -3 -115 -20 -142 -25 -43 -70 -63
-138 -63 -98 0 -146 66 -147 200 0 93 13 142 48 181 43 49 137 58 192 19z"/>
<path d="M13260 1855 l0 -395 45 0 45 0 0 395 0 395 -45 0 -45 0 0 -395z"/>
<path d="M7125 2209 c-77 -11 -174 -59 -216 -106 -59 -68 -83 -136 -87 -250
-6 -148 19 -225 96 -303 65 -65 118 -87 227 -97 69 -5 185 7 258 29 l37 11 0
179 0 178 -130 0 -130 0 0 -40 0 -40 80 0 80 0 0 -110 c0 -96 -2 -112 -17
-117 -10 -4 -61 -7 -113 -8 -116 0 -173 19 -224 75 -57 63 -69 101 -70 220 0
91 3 111 23 153 30 61 98 121 156 137 58 16 206 8 258 -13 l37 -16 15 36 c9
21 12 40 7 45 -28 28 -198 50 -287 37z"/>
<path d="M12203 2210 c-134 -27 -202 -133 -161 -251 26 -77 44 -90 260 -187
92 -42 120 -100 83 -172 -20 -39 -65 -61 -134 -67 -50 -4 -165 13 -214 32 -16
7 -18 3 -15 -36 3 -41 5 -45 43 -58 24 -8 83 -14 145 -15 89 -1 112 3 155 22
63 29 84 48 106 97 39 84 14 188 -57 237 -22 15 -79 43 -127 62 -111 43 -134
59 -154 100 -20 43 -11 95 23 127 34 32 145 39 229 14 31 -9 58 -15 59 -13 7
11 26 60 26 67 0 11 -103 38 -170 44 -30 3 -74 1 -97 -3z"/>
<path d="M4087 2204 c-4 -4 -7 -173 -7 -376 l0 -369 43 3 42 3 0 317 c0 174 1
316 2 315 1 -1 53 -137 116 -302 64 -165 119 -308 122 -318 6 -14 16 -17 43
-15 l35 3 121 312 121 313 3 -315 2 -315 45 0 45 0 -2 373 -3 372 -64 0 -64 0
-115 -297 c-63 -164 -118 -298 -122 -298 -4 0 -58 134 -121 298 l-114 297 -60
3 c-34 2 -64 0 -68 -4z"/>
<path d="M5606 2090 c-16 -56 -21 -62 -57 -76 -30 -13 -39 -22 -39 -40 0 -21
4 -24 40 -24 l40 0 0 -190 c0 -208 6 -240 54 -278 33 -26 102 -37 153 -25 33
8 38 13 41 41 l3 32 -60 0 c-49 0 -64 4 -81 22 -19 20 -20 34 -20 209 l0 188
78 3 77 3 3 33 3 32 -80 0 -80 0 -3 63 c-3 58 -4 62 -29 65 -24 3 -27 -2 -43
-58z"/>
<path d="M5120 2016 c-25 -8 -55 -17 -68 -21 -19 -6 -22 -12 -17 -34 10 -40
19 -44 71 -26 57 19 141 22 172 6 28 -15 38 -36 47 -92 l7 -46 -94 -7 c-125
-9 -191 -31 -232 -77 -39 -43 -51 -93 -36 -150 34 -126 212 -160 320 -63 l39
36 6 -29 c12 -50 14 -53 45 -53 l31 0 -3 234 c-3 220 -4 236 -24 263 -12 15
-36 37 -53 47 -42 24 -151 31 -211 12z m200 -336 c0 -97 -54 -150 -152 -150
-75 0 -108 25 -108 81 0 86 48 116 193 118 l67 1 0 -50z"/>
<path d="M6081 2016 c-51 -17 -104 -64 -134 -121 -19 -34 -22 -56 -22 -150 0
-99 3 -116 26 -160 67 -132 249 -174 374 -87 110 77 138 294 55 425 -56 89
-186 129 -299 93z m199 -101 c42 -41 64 -120 57 -203 -12 -124 -65 -182 -165
-182 -109 0 -154 55 -160 196 -4 76 -1 99 16 137 30 67 69 89 154 85 58 -3 71
-7 98 -33z"/>
<path d="M7772 2009 c-23 -12 -52 -35 -64 -52 -20 -27 -22 -29 -29 -11 -4 10
-8 31 -8 47 -1 24 -5 27 -36 27 l-35 0 0 -280 0 -280 40 0 40 0 0 158 c0 86 5
175 11 197 24 89 94 142 175 132 42 -4 42 -4 47 32 2 20 2 39 0 44 -9 15 -99
6 -141 -14z"/>
<path d="M8156 2018 c-62 -17 -131 -91 -151 -162 -27 -92 -18 -207 22 -277 37
-66 90 -105 164 -121 118 -25 229 28 277 130 24 50 27 69 27 157 -1 106 -17
157 -69 213 -53 59 -177 86 -270 60z m174 -85 c15 -9 39 -35 52 -57 20 -35 23
-54 23 -136 -1 -102 -11 -135 -59 -179 -20 -19 -40 -26 -88 -29 -77 -6 -116
13 -149 71 -21 37 -24 55 -24 142 0 87 3 105 23 138 13 20 36 44 50 52 38 20
137 19 172 -2z"/>
<path d="M8714 2014 c-114 -41 -140 -176 -47 -242 16 -11 64 -34 108 -52 44
-18 92 -42 107 -52 50 -35 49 -97 -2 -123 -40 -21 -152 -19 -217 4 l-53 18 0
-39 c0 -35 3 -40 36 -54 59 -25 161 -29 226 -10 74 21 113 55 126 109 25 97
-20 153 -171 211 -134 52 -169 101 -106 149 33 24 133 26 197 4 l43 -15 16 34
c9 18 14 36 12 38 -3 3 -31 12 -64 21 -73 18 -156 18 -211 -1z"/>
<path d="M9220 2018 c-82 -23 -127 -86 -115 -159 10 -57 50 -90 163 -138 118
-50 142 -69 142 -116 0 -55 -35 -75 -129 -75 -42 1 -94 8 -116 16 -60 22 -60
22 -63 -19 -3 -34 0 -39 31 -52 52 -22 155 -29 220 -15 97 20 154 85 144 167
-9 80 -19 88 -235 184 -30 13 -58 31 -63 40 -17 32 -10 68 16 85 33 21 143 21
201 1 l41 -15 16 34 c19 38 17 40 -56 60 -60 16 -146 17 -197 2z"/>
<path d="M9780 2021 c-106 -33 -164 -114 -177 -246 -20 -216 139 -366 330
-311 101 29 157 98 176 215 25 154 -41 294 -158 336 -46 16 -128 19 -171 6z
m168 -91 c50 -31 72 -88 72 -189 0 -145 -50 -211 -158 -211 -98 0 -147 47
-164 158 -15 98 2 175 52 224 36 36 41 38 101 38 47 0 73 -6 97 -20z"/>
<path d="M11310 2021 c-106 -33 -164 -114 -177 -246 -20 -217 139 -366 331
-311 76 22 129 71 157 144 28 77 24 225 -9 288 -54 104 -188 159 -302 125z
m168 -91 c54 -33 75 -94 70 -204 -4 -103 -22 -144 -74 -177 -45 -28 -131 -26
-175 4 -55 36 -74 87 -73 192 0 101 13 135 64 179 27 22 41 26 93 26 45 0 71
-6 95 -20z"/>
<path d="M12620 1811 c0 -217 6 -257 44 -299 67 -75 222 -80 302 -10 35 31 39
29 46 -17 3 -16 11 -20 38 -20 l35 0 3 278 2 277 -44 0 -44 0 -4 -192 c-4
-215 -11 -242 -71 -278 -37 -23 -121 -27 -162 -8 -50 22 -55 49 -55 273 l0
205 -45 0 -45 0 0 -209z"/>
<path d="M83 1236 l-28 -24 -3 -418 c-2 -302 1 -426 9 -447 24 -58 15 -57 482
-57 l429 0 29 29 29 29 0 425 0 425 -26 31 -26 31 -433 0 -434 0 -28 -24z"/>
<path d="M1277 1249 c-45 -26 -47 -44 -47 -474 0 -433 2 -449 49 -475 13 -6
173 -10 446 -10 l427 0 29 29 29 29 0 425 0 425 -26 31 -26 31 -431 0 c-275 0
-438 -4 -450 -11z"/>
<path d="M12464 1038 c-9 -18 -30 -52 -45 -75 -36 -52 -36 -63 0 -63 23 0 43
15 100 76 39 42 71 80 71 85 0 5 -25 9 -55 9 -51 0 -55 -2 -71 -32z"/>
<path d="M11630 670 l0 -390 30 0 c26 0 31 5 37 30 3 17 7 30 9 30 2 0 24 -15
50 -32 43 -31 51 -33 129 -33 76 0 87 2 126 30 53 37 86 100 100 186 20 130
-21 258 -100 314 -39 28 -50 30 -126 30 -78 0 -86 -2 -129 -32 l-46 -33 0 145
0 145 -40 0 -40 0 0 -390z m310 82 c56 -28 80 -87 80 -197 0 -110 -24 -169
-80 -198 -63 -33 -158 -10 -195 47 -41 62 -39 249 3 306 24 33 79 60 122 60
19 0 51 -8 70 -18z"/>
<path d="M4316 1014 c-154 -49 -231 -172 -231 -369 0 -171 55 -281 169 -340
51 -25 71 -30 155 -33 57 -2 116 2 146 10 50 13 50 13 53 57 3 36 1 43 -12 38
-41 -16 -153 -29 -198 -23 -152 20 -225 129 -216 320 7 146 62 228 174 262 26
8 61 14 78 14 29 0 118 -20 157 -35 10 -4 20 5 32 30 9 20 17 37 17 39 0 2
-19 12 -42 21 -61 25 -218 30 -282 9z"/>
<path d="M8536 1014 c-154 -49 -231 -172 -231 -369 0 -171 55 -281 169 -340
51 -25 71 -30 155 -33 57 -2 116 2 146 10 50 13 50 13 53 57 3 36 1 43 -12 38
-41 -16 -153 -29 -198 -23 -152 20 -225 129 -216 320 7 146 62 228 174 262 26
8 61 14 78 14 29 0 118 -20 157 -35 10 -4 20 5 32 30 9 20 17 37 17 39 0 2
-19 12 -42 21 -61 25 -218 30 -282 9z"/>
<path d="M4852 821 c-29 -10 -55 -21 -59 -24 -3 -4 0 -20 7 -37 11 -26 17 -30
34 -25 99 32 136 39 172 30 46 -12 71 -45 80 -107 l6 -48 -70 0 c-127 0 -235
-34 -268 -85 -39 -59 -34 -157 9 -204 66 -71 235 -67 301 8 22 24 36 14 36
-26 0 -20 5 -23 35 -23 l35 0 0 217 c0 198 -2 220 -21 259 -28 59 -81 84 -175
84 -40 -1 -91 -8 -122 -19z m228 -323 c0 -68 -27 -113 -83 -138 -48 -22 -81
-25 -126 -9 -38 13 -51 35 -51 84 0 51 42 91 101 99 170 22 159 25 159 -36z"/>
<path d="M5510 829 c-14 -6 -39 -24 -57 -41 l-32 -31 -6 37 c-7 33 -10 36 -41
36 l-34 0 0 -275 0 -275 39 0 39 0 4 188 c6 248 22 286 134 298 65 7 108 -19
123 -73 6 -21 11 -122 11 -225 l0 -188 45 0 45 0 0 191 c0 207 7 242 56 274
34 22 113 29 144 13 52 -27 60 -64 60 -280 l0 -198 46 0 46 0 -4 218 c-3 196
-5 221 -24 257 -53 103 -247 115 -322 20 l-22 -27 -27 32 c-15 18 -42 39 -60
46 -37 16 -126 17 -163 3z"/>
<path d="M6470 829 c-14 -6 -39 -24 -57 -41 l-32 -31 -6 37 c-7 33 -10 36 -41
36 l-34 0 0 -400 0 -400 40 0 40 0 0 155 0 155 45 -32 c39 -27 57 -33 115 -36
158 -9 242 89 242 283 0 188 -78 285 -227 284 -33 0 -71 -5 -85 -10z m140 -78
c55 -29 80 -88 80 -186 0 -94 -12 -139 -48 -177 -35 -38 -74 -51 -127 -44 -55
9 -100 44 -116 94 -20 61 -17 202 6 252 32 72 131 101 205 61z"/>
<path d="M7625 821 c-66 -30 -90 -64 -90 -126 0 -48 4 -58 34 -89 21 -22 64
-47 115 -67 138 -56 165 -80 154 -135 -13 -66 -158 -80 -290 -29 -15 6 -18 1
-18 -34 l0 -40 57 -17 c39 -11 80 -15 137 -12 116 6 176 42 196 119 25 91 -22
149 -163 203 -107 42 -137 65 -137 105 0 61 80 85 189 57 79 -20 76 -21 89 9
18 40 16 43 -40 60 -72 21 -183 19 -233 -4z"/>
<path d="M9093 816 c-97 -46 -139 -134 -131 -283 5 -103 25 -150 87 -206 104
-94 290 -71 367 45 70 104 65 285 -11 384 -62 81 -206 109 -312 60z m205 -73
c64 -47 88 -130 72 -244 -15 -105 -67 -154 -160 -154 -72 1 -105 21 -137 85
-18 35 -23 61 -23 121 0 116 27 174 95 205 40 19 119 12 153 -13z"/>
<path d="M9785 825 c-16 -8 -44 -31 -61 -50 -31 -35 -32 -35 -38 -13 -3 13 -6
33 -6 46 0 19 -5 22 -35 22 l-35 0 0 -275 0 -275 39 0 39 0 4 173 c4 194 13
227 76 275 28 21 47 27 91 28 55 1 56 1 62 35 4 18 5 37 3 41 -9 14 -108 8
-139 -7z"/>
<path d="M10840 829 c-14 -6 -39 -24 -57 -41 l-32 -31 -6 37 c-7 33 -10 36
-41 36 l-34 0 0 -275 0 -275 39 0 39 0 4 188 c6 248 22 286 134 298 65 7 108
-19 123 -73 6 -21 11 -122 11 -225 l0 -188 45 0 45 0 0 191 c0 207 7 242 56
274 34 22 113 29 144 13 52 -27 60 -64 60 -280 l0 -198 46 0 46 0 -4 218 c-3
196 -5 221 -24 257 -53 103 -247 115 -322 20 l-22 -27 -27 32 c-15 18 -42 39
-60 46 -37 16 -126 17 -163 3z"/>
<path d="M12342 821 c-29 -10 -55 -21 -59 -24 -7 -7 16 -67 26 -67 3 1 31 9
61 20 67 23 111 25 150 5 36 -18 45 -36 54 -97 l7 -48 -70 0 c-126 0 -234 -34
-267 -85 -39 -59 -34 -157 9 -204 66 -71 235 -67 301 8 22 24 36 14 36 -26 0
-20 5 -23 35 -23 l35 0 0 217 c0 198 -2 220 -21 259 -28 59 -81 84 -175 84
-40 -1 -91 -8 -122 -19z m228 -323 c0 -68 -27 -113 -83 -138 -48 -22 -81 -25
-126 -9 -38 13 -51 35 -51 84 0 51 42 91 101 99 170 22 159 25 159 -36z"/>
<path d="M6932 608 c3 -202 5 -226 23 -258 53 -92 239 -110 324 -31 31 29 41
25 41 -20 0 -16 7 -19 40 -19 l40 0 0 275 0 275 -44 0 -44 0 -4 -187 c-4 -209
-14 -250 -70 -279 -48 -25 -118 -28 -158 -7 -56 29 -60 46 -60 271 l0 202 -46
0 -45 0 3 -222z"/>
<path d="M10022 608 c3 -202 5 -226 23 -258 53 -92 239 -110 324 -31 31 29 41
25 41 -20 0 -16 7 -19 40 -19 l40 0 0 275 0 275 -44 0 -44 0 -4 -187 c-4 -209
-14 -250 -70 -279 -48 -25 -118 -28 -158 -7 -56 29 -60 46 -60 271 l0 202 -46
0 -45 0 3 -222z"/>
</g>
</svg>
