<?xml version="1.0" encoding="UTF-8" standalone="no"?>
<svg
   version="1.1"
   id="Layer_1"
   x="0px"
   y="0px"
   viewBox="0 0 595.276 595.276"
   style="enable-background:new 0 0 595.276 595.276;"
   xml:space="preserve"
   height="58px"
   width="58px"
   sodipodi:docname="logo.svg"
   inkscape:version="1.1.2 (b8e25be833, 2022-02-05)"
   xmlns:inkscape="http://www.inkscape.org/namespaces/inkscape"
   xmlns:sodipodi="http://sodipodi.sourceforge.net/DTD/sodipodi-0.dtd"
   xmlns="http://www.w3.org/2000/svg"
   xmlns:svg="http://www.w3.org/2000/svg"><defs
     id="defs19" /><sodipodi:namedview
     id="namedview17"
     pagecolor="#ffffff"
     bordercolor="#666666"
     borderopacity="1.0"
     inkscape:pageshadow="2"
     inkscape:pageopacity="0.0"
     inkscape:pagecheckerboard="0"
     showgrid="false"
     inkscape:zoom="2.4626823"
     inkscape:cx="-81.821355"
     inkscape:cy="35.327335"
     inkscape:window-width="1920"
     inkscape:window-height="1017"
     inkscape:window-x="-8"
     inkscape:window-y="-8"
     inkscape:window-maximized="1"
     inkscape:current-layer="Layer_1" /><rect
     style="fill:#fff4ef;fill-opacity:1;fill-rule:evenodd;stroke-width:26.9337"
     id="rect8253"
     width="1600.8171"
     height="1562.1503"
     x="-996.7005"
     y="-966.87421"
     inkscape:export-filename="C:\Users\1263151\Documents\Frameworks\Laboratorio\public\logo.png"
     inkscape:export-xdpi="300.22421"
     inkscape:export-ydpi="300.22421" /><g
     id="g8207"
     transform="matrix(1.2854721,0,0,1.2854721,-590.34209,-579.77467)"
     style="stroke:#5e8064"
     inkscape:export-filename="C:\Users\1263151\Documents\Frameworks\Laboratorio\public\logo.png"
     inkscape:export-xdpi="300.22421"
     inkscape:export-ydpi="300.22421"><path
       style="color:#000000;fill:#5e8064;fill-rule:evenodd;stroke:none;-inkscape-stroke:none"
       d="m 298.96094,-91.980469 c -3.10736,0.226695 -6.57714,0.803055 -10.56836,1.841797 l -0.11133,0.0293 -0.11133,0.03516 C 243.5967,-76.461208 221.09639,-53.278661 203.7168,-29.919922 186.33721,-6.5611831 173.78277,16.459386 147.78125,32.994141 124.26604,47.947818 83.039028,52.9425 45.541016,60.230469 26.792009,63.874453 8.9277621,68.164883 -5.7148437,75.255859 -20.131448,82.23739 -31.663231,92.375369 -36.275391,107.15039 c -15.813024,29.85623 -9.020066,65.62932 1.003907,101.35352 10.066987,35.87749 23.579639,72.37539 23.958984,103.23437 0.399832,32.52565 -14.099811,65.43879 -24.853516,98.48242 -10.753704,33.04364 -17.591363,67.06038 1.107422,100.0293 l 0.361328,0.63672 0.511719,0.52148 c 25.1691847,25.60456 59.374319,35.73934 92.931641,43.11524 33.557321,7.3759 66.742966,12.19043 90.503906,25.23437 30.54205,16.76654 51.93927,45.59243 73.69141,71.75391 21.75213,26.16148 44.38605,50.10568 77.99414,53.49023 l 0.59765,0.0586 0.59766,-0.0684 c 38.46232,-4.44267 62.00964,-28.52126 82.41992,-54.56836 20.41028,-26.04711 38.3987,-54.20899 65.90625,-70.41602 25.20104,-14.84807 62.05454,-19.24225 97.87109,-26.625 35.81656,-7.38274 71.22616,-18.09594 91.94532,-48.29883 l 7.10937,-10.36718 -2.82812,0.38672 c 8.44256,-24.93554 1.58119,-53.1764 -7.33789,-81.82813 -10.05963,-32.31562 -22.8964,-65.81458 -22.73633,-96.45312 0.16144,-30.88775 15.57791,-70.13367 25.55664,-108.75 C 650.01584,169.45594 654.5204,130.1653 629.5,100.25391 l -0.16602,-0.19727 -0.18164,-0.179687 C 602.8312,73.724864 571.69302,66.646934 541.09961,61.671875 510.5062,56.696816 480.28293,53.568948 453.10547,36.662109 431.37431,23.143366 414.49691,-0.72068089 395.27539,-24.996094 376.05387,-49.271507 354.26646,-73.952305 321.7207,-87.488281 l -0.11133,-0.04687 -0.11523,-0.04297 c -7.14499,-2.611129 -13.21112,-5.082427 -22.5332,-4.402344 z m 0.93164,10.894532 c 6.99947,-0.747326 10.16247,1.167695 17.59375,3.898437 29.71192,12.371058 50.11351,35.181643 69.05664,59.105469 18.95219,23.9352632 36.22516,48.988253 60.67969,64.201172 29.77672,18.523815 61.95478,21.644399 92.08984,26.544921 30.06021,4.888351 57.9093,11.308927 81.80859,34.949218 21.31135,25.68794 17.83171,60.14045 8.13282,97.67383 -9.72546,37.63618 -25.73029,77.06329 -25.91016,111.47656 -0.17616,33.71983 13.34528,68.0337 23.24023,99.82031 9.85291,31.65156 15.82624,60.11191 4.28711,82.47071 -18.07856,26.08601 -49.79297,36.20589 -84.79101,43.41992 -35.12834,7.24089 -72.91875,11.23214 -101.27539,27.93945 -30.48376,17.96057 -49.09511,47.71106 -69.02149,73.14063 -19.8002,25.26854 -40.22412,46.08959 -74.30664,50.25976 -28.55746,-3.13186 -48.67246,-23.80394 -69.97265,-49.42187 -21.44767,-25.79529 -43.59179,-56.11442 -76.89454,-74.39649 -26.4979,-14.54644 -60.476256,-19.097 -93.472651,-26.34961 -32.732973,-7.1947 -64.2049776,-16.89031 -86.8125,-39.5332 -16.075367,-28.92399 -10.319892,-58.43056 0.09961,-90.44726 C -15.079665,381.41269 0.26497222,347.45613 -0.17578125,311.60156 -0.59270902,277.68534 -14.664093,240.72211 -24.548828,205.49414 c -9.884736,-35.22797 -15.379095,-68.04615 -1.728516,-93.46289 l 0.273438,-0.50781 0.164062,-0.55469 C -22.460108,99.48904 -13.858265,91.573325 -0.86132813,85.279297 12.135609,78.985269 29.24487,74.744325 47.666016,71.164062 84.508307,64.003537 126.41396,59.780949 153.75781,42.392578 c 28.56577,-18.165401 42.11058,-43.10587661 58.89453,-65.664062 16.76713,-22.535572 36.48151,-43.203264 78.65039,-56.111328 3.4828,-0.90222 6.26257,-1.454645 8.58985,-1.703125 z"
       id="path7982" /><path
       style="color:#000000;fill:#5e8064;fill-rule:evenodd;stroke:none;-inkscape-stroke:none"
       d="m 131.89062,-45.824219 c -4.25244,0.18801 -8.55745,0.584956 -12.91796,1.216797 l -0.11914,0.01758 -0.1211,0.02344 c -9.96478,1.892368 -18.15627,3.01442 -29.736326,14.763672 l -0.08203,0.08203 -0.07813,0.08594 C 57.536365,4.8967079 50.096354,36.336044 47.142578,65.300781 44.188803,94.265518 45.206092,120.467 31.351562,147.99023 c -12.529737,24.89143 -45.372597,50.30691 -73.83789,75.78125 -14.232647,12.73718 -27.374459,25.57712 -36.314453,39.16993 -8.803227,13.38485 -13.51422,28.00144 -9.900391,43.05468 1.72356,33.7388 25.889458,60.97314 52.802735,86.51172 27.0302862,25.64961 57.338924,50.0684 73.478515,76.37305 17.011299,27.72532 21.424004,63.41691 29.123047,97.30273 7.699043,33.88582 19.262837,66.60152 52.214845,85.33008 l 0.63476,0.36133 0.70704,0.18359 c 34.73431,9.0889 69.29857,0.2652 101.89453,-10.59765 32.59595,-10.86286 63.56209,-23.73551 90.65039,-24.71094 34.81899,-1.25378 67.96337,12.5353 100.04883,23.85352 32.08545,11.31821 63.79254,20.27918 94.38671,5.96289 l 0.54493,-0.25391 0.47656,-0.36719 c 30.75142,-23.5252 38.63196,-56.26738 42.81055,-89.09375 4.17858,-32.82636 5.19599,-66.22663 20.51171,-94.24023 14.03157,-25.66469 43.42561,-48.32547 70.39844,-73.01953 26.97284,-24.69406 51.88701,-52.04048 54.20117,-88.59375 l 0.84375,-13.3086 -2.35156,2.04688 C 688.99553,264.22275 668.71243,243.63505 646.51172,223.72852 621.31302,201.13379 593.12385,178.94653 577.56055,152.55469 561.87057,125.94824 554.99763,84.346293 543.77734,46.072266 532.55706,7.798238 516.29016,-28.249781 479.47656,-41.113281 l -0.24219,-0.08398 -0.25,-0.0625 c -36.00412,-8.968731 -66.36898,0.91275 -95.18945,12.31836 -28.82047,11.405609 -56.37723,24.2080753 -88.3789,23.6171873 -25.5886,-0.4724789 -52.31001,-12.3170463 -81.25586,-23.3125003 -25.32762,-9.621022 -52.50241,-18.503569 -82.26954,-17.1875 z m 0.51172,11.126953 c 27.33498,-1.196689 52.83001,6.984492 77.80274,16.470704 28.54026,10.8413838 56.21049,23.5054187 85.00586,24.0371089 35.06232,0.6474007 64.29296,-13.1637073 92.68164,-24.3984379 28.31789,-11.206716 55.52332,-19.962662 88.16015,-11.910156 31.46456,11.137346 46.13144,42.50227 57.03711,79.703125 10.93549,37.302566 17.39807,79.362552 34.87891,109.005862 17.12851,29.04609 46.32316,51.58373 71.10937,73.80859 24.68216,22.13155 44.39607,43.5083 45.94336,68.62305 -2.15734,31.6637 -24.2048,56.60527 -50.56054,80.73437 -26.45455,24.21956 -56.85989,47.0123 -72.64844,75.89063 -16.97282,31.04456 -17.70759,66.12964 -21.78711,98.17773 -4.05379,31.84597 -10.92289,60.19333 -38.05469,81.24024 -26.1271,11.94385 -53.99403,4.49881 -85.41211,-6.58399 -31.63635,-11.15979 -66.18997,-25.84758 -104.15625,-24.48047 -30.20852,1.08779 -61.71843,14.59217 -93.76953,25.27344 -31.79635,10.59638 -63.78874,18.39888 -94.80664,10.53906 C 95.202329,624.83381 85.023935,596.54824 77.564453,563.7168 70.049549,530.64143 65.824629,493.61958 47.072266,463.05664 29.333698,434.14595 -1.6914893,409.61494 -28.232422,384.42969 -54.773354,359.24443 -76.30832,333.87765 -77.611328,305.05664 l -0.02734,-0.57617 -0.142578,-0.5586 c -2.980617,-11.58974 0.34992,-22.7962 8.285156,-34.86132 7.935237,-12.06512 20.451784,-24.4758 34.435547,-36.99024 27.9675259,-25.02888 61.7896,-50.12812 76.359375,-79.07226 15.220855,-30.23756 14.069332,-58.596308 16.921875,-86.568363 2.849711,-27.944282 9.190188,-55.793862 38.787109,-88.488281 10.123644,-10.248311 13.238194,-9.585869 23.583984,-11.529297 3.97654,-0.575447 7.91264,-0.938729 11.81054,-1.109375 z"
       id="path7982-7" /></g><g
     id="g7265"
     transform="matrix(2.6242453,0,0,2.6242453,-1008.9203,-994.6013)"
     inkscape:export-filename="C:\Users\1263151\Documents\Frameworks\Laboratorio\public\logo.png"
     inkscape:export-xdpi="300.22421"
     inkscape:export-ydpi="300.22421"><path
       id="color_x5F_1_40_"
       d="m 335.02636,311.70922 -12.3348,17.30845 c -9.49477,-0.78934 -18.90919,-0.7995 -28.40222,-0.0243 l -12.53641,-17.29453 c 17.9252,-3.00392 35.34737,-3.00015 53.27343,0.0104 z m -38.94162,20.23956 12.53379,18.97098 12.31072,-18.95154 c -8.29988,-0.61674 -16.54551,-0.62196 -24.84451,-0.0194 z m 44.63558,-95.44263 c 0,-2.39762 -2.17426,-4.2873 -4.65861,-3.80487 -1.51052,0.29329 -2.73443,1.52242 -3.02743,3.03293 -0.34347,1.77074 0.52566,3.35668 1.90911,4.13819 v 40.51103 c 0,3.07239 -2.69178,5.43259 -5.74183,5.06301 -0.0345,-0.004 -0.0688,-0.008 -0.10327,-0.0125 -2.56298,-0.30894 -4.48369,-2.48871 -4.48369,-5.06997 v -11.74152 h 0.82706 c 3.47881,0 6.2988,-2.82 6.2988,-6.29881 v -34.08748 c 1.38869,-0.7789 2.26274,-2.3663 1.92042,-4.14022 -0.29183,-1.51197 -1.51602,-2.74284 -3.02741,-3.03641 -2.48466,-0.48273 -4.6592,1.40695 -4.6592,3.80487 0,1.39361 0.7409,2.60591 1.84413,3.29024 v 9.69204 c 0,1.13746 -0.92192,2.05937 -2.05938,2.05937 h -6.42239 c -0.87579,0 -1.58595,-0.70986 -1.58595,-1.58594 v -19.71536 c 1.33357,-0.8053 2.15425,-2.37384 1.8041,-4.11353 -0.30141,-1.49834 -1.52154,-2.71267 -3.02191,-3.00392 -2.48436,-0.48214 -4.65862,1.40753 -4.65862,3.80487 0,1.43828 0.79138,2.67959 1.95408,3.34971 v 18.84566 c 0,3.47881 2.82,6.29881 6.29881,6.29881 h 7.69097 v 19.36928 c 0,0.87579 -0.70986,1.58594 -1.58566,1.58594 h -0.0322 c -0.8758,0 -1.58566,-0.70986 -1.58566,-1.58594 v -4.39725 c 1.2535,-0.82763 2.00165,-2.35846 1.66805,-4.03404 -0.3017,-1.51545 -1.5552,-2.74313 -3.07587,-3.01842 -2.46231,-0.44559 -4.60582,1.43422 -4.60582,3.81473 0,1.49427 0.85375,2.7759 2.09158,3.42426 v 20.2767 c 0,2.90412 -2.41939,5.21212 -5.3209,5.0926 -0.0345,-10e-4 -0.0688,-0.003 -0.10328,-0.004 -2.74139,-0.1114 -4.90375,-2.36281 -4.90375,-5.10652 v -69.32307 c 1.34024,-0.8024 2.1673,-2.37297 1.81831,-4.11672 -0.30024,-1.50008 -1.52096,-2.71616 -3.02277,-3.0077 -2.48408,-0.48213 -4.65833,1.40753 -4.65833,3.80487 0,1.43277 0.78557,2.67032 1.94073,3.34246 v 39.99351 c 0,0.98313 -0.79689,1.78001 -1.78002,1.78001 h -0.036 c -0.98313,0 -1.78001,-0.79688 -1.78001,-1.78001 v -9.96008 c 1.20505,-0.84737 1.912,-2.35586 1.56825,-4.00417 -0.31273,-1.4995 -1.55781,-2.70774 -3.06485,-2.98188 -2.46377,-0.44819 -4.6093,1.43248 -4.6093,3.81416 0,1.53169 0.89523,2.8435 2.18383,3.47445 v 9.01931 c 0,3.47881 2.82,6.29881 6.2988,6.29881 h 1.21927 v 23.65629 c 0,2.73703 -2.15801,4.98294 -4.89272,5.09202 -0.0345,10e-4 -0.0687,0.002 -0.10327,0.004 -2.90849,0.11807 -5.3328,-2.19572 -5.3328,-5.10652 v -14.08299 c 1.28744,-0.82647 2.06024,-2.3837 1.7043,-4.09322 -0.30953,-1.48615 -1.52677,-2.68453 -3.01727,-2.97346 -2.48378,-0.48127 -4.65716,1.40811 -4.65716,3.80516 0,1.47658 0.83402,2.74487 2.04777,3.40077 v 15.10113 c 0,2.57777 -1.91839,4.75434 -4.47789,5.06185 -0.0345,0.004 -0.0687,0.008 -0.10327,0.0125 -3.05353,0.369 -5.74763,-1.9941 -5.74763,-5.06968 v -27.07188 h 1.15341 c 3.4788,0 6.29881,-2.81999 6.29881,-6.2988 v -15.26735 c 1.38781,-0.77949 2.26099,-2.3663 1.91839,-4.13964 -0.29213,-1.51168 -1.51603,-2.74226 -3.02742,-3.03613 -2.48466,-0.48271 -4.6592,1.40696 -4.6592,3.80487 0,1.39449 0.74177,2.60708 1.84615,3.29112 v 16.01782 c 0,0.96515 -0.78238,1.74724 -1.74723,1.74724 h -0.0354 c -0.96514,0 -1.74724,-0.78239 -1.74724,-1.74724 v -8.58851 c 1.11135,-0.83866 1.77016,-2.24591 1.49021,-3.80198 -0.27413,-1.52299 -1.4757,-2.77039 -2.99145,-3.08224 -2.5038,-0.51521 -4.70532,1.38288 -4.70532,3.79558 0,1.57261 0.93962,2.91951 2.28449,3.529 l -0.10732,64.89835 c 20.61175,-3.57773 40.44257,-3.57773 61.05432,0 v -17.52544 c -0.007,-0.001 -0.0145,-0.002 -0.0217,-0.004 v -47.08478 c 1.10845,-0.68317 1.85429,-1.89779 1.85429,-3.29576 z"
       style="fill:#5e8064;fill-opacity:1;stroke-width:0.290094" /><g
       aria-label="LIADS"
       id="text1378"
       style="font-size:56.4451px;line-height:1.25;fill:#5e8064;stroke-width:1.41113"><path
         d="m 222.81514,412.71085 v -45.15608 l 8.74899,1.1289 -1.69335,37.87466 21.22335,-1.69335 v 7.84587 z"
         style="font-family:'RocknRoll One';-inkscape-font-specification:'RocknRoll One'"
         id="path7325" /><path
         d="m 257.98045,413.44463 v -45.88986 l 8.69255,1.1289 -1.69336,44.02718 z"
         style="font-family:'RocknRoll One';-inkscape-font-specification:'RocknRoll One'"
         id="path7327" /><path
         d="m 304.49116,413.44463 -2.99159,-9.03121 h -19.30423 l -3.95115,9.03121 -5.87029,-0.73378 16.25618,-45.15608 8.74899,2.14491 -1.18534,2.65292 16.93353,40.3018 z m -11.28902,-34.20573 -8.80544,20.09446 14.90151,-1.63691 z"
         style="font-family:'RocknRoll One';-inkscape-font-specification:'RocknRoll One'"
         id="path7329" /><path
         d="m 319.22329,412.71085 -1.01602,-37.76178 q -0.79023,0.0564 -1.52401,0.16934 -0.73379,0.11289 -1.35469,0.22578 l -1.1289,-4.96717 q 1.63691,-0.33867 4.0076,-0.73378 2.3707,-0.39512 5.13651,-0.73379 2.76581,-0.33867 5.47517,-0.56445 2.76581,-0.22578 5.08006,-0.22578 6.43474,0 11.0068,2.70936 4.62849,2.65292 7.11208,7.78943 2.48358,5.08006 2.48358,12.41792 0,4.79783 -1.52401,8.74899 -1.46758,3.95116 -4.17694,6.8863 -2.70937,2.8787 -6.3783,4.45916 -3.66893,1.58047 -8.0152,1.58047 z m 6.94274,-5.53162 q 2.8787,0 5.7574,-0.11289 2.8787,-0.16934 5.08006,-0.67735 2.42714,-0.56445 4.6285,-2.48358 2.20136,-1.97558 3.55604,-5.24939 1.41113,-3.27382 1.41113,-7.67654 0,-5.7574 -1.80624,-9.48277 -1.7498,-3.72538 -4.74139,-5.53162 -2.99159,-1.86269 -6.77341,-1.86269 -3.55605,0 -7.11209,0.16933 z"
         style="font-family:'RocknRoll One';-inkscape-font-specification:'RocknRoll One'"
         id="path7331" /><path
         d="m 387.12677,382.79494 q -0.33867,-3.04803 -1.24179,-4.85427 -0.84668,-1.80625 -1.91914,-2.70937 -1.35468,-1.18535 -3.10448,-1.69335 -1.69335,-0.56445 -4.28982,-0.56445 -3.61249,0 -5.47518,2.03202 -1.86269,1.97558 -1.86269,4.68494 0,1.7498 1.7498,3.33026 1.80624,1.52402 4.74139,2.48359 l 6.77341,2.20136 q 5.24939,1.69335 8.12809,4.51561 2.93515,2.82225 2.93515,7.90231 0,6.43474 -4.23338,10.04723 -4.17694,3.55604 -11.96636,3.55604 -6.60408,0 -11.0068,-3.10448 -4.34627,-3.10448 -6.03962,-8.24099 l 4.17693,-2.76581 q 1.63691,3.78182 4.96717,6.03963 3.38671,2.20136 7.90232,2.20136 3.83826,0 6.20896,-1.97558 2.37069,-2.03202 2.37069,-4.91072 0,-2.3707 -1.97558,-4.06405 -1.97558,-1.69335 -5.47517,-2.93515 l -6.3783,-2.20136 q -5.19295,-1.80624 -7.62009,-4.40271 -2.42714,-2.59648 -2.42714,-7.28142 0,-3.44315 1.7498,-6.26541 1.7498,-2.82225 5.08006,-4.51561 3.38671,-1.69335 8.07165,-1.69335 5.30584,0 9.42633,1.7498 4.12049,1.7498 6.03963,4.34627 l -1.58046,9.08766 z"
         style="font-family:'RocknRoll One';-inkscape-font-specification:'RocknRoll One'"
         id="path7333" /></g></g></svg>
