<svg version="1.1" id="Layer_1" xmlns="http://www.w3.org/2000/svg" xmlns:xlink="http://www.w3.org/1999/xlink" x="0px" y="0px" viewBox="0 0 595.276 595.276" style="enable-background:new 0 0 595.276 595.276;" xml:space="preserve" height="58px" width="58px"><path id="color_x5F_1_40_" d="M390.153,417.975l-42.52,59.665c-32.73-2.721-65.183-2.756-97.907-0.084l-43.215-59.617    C268.302,407.584,328.359,407.597,390.153,417.975z M255.915,487.744l43.206,65.396l42.437-65.329    C312.947,485.685,284.523,485.667,255.915,487.744z M409.781,158.738c0-8.265-7.495-14.779-16.059-13.116    c-5.207,1.011-9.426,5.248-10.436,10.455c-1.184,6.104,1.812,11.571,6.581,14.265V309.99c0,10.591-9.279,18.727-19.793,17.453    c-0.119-0.014-0.237-0.029-0.356-0.043c-8.835-1.065-15.456-8.579-15.456-17.477v-40.475h2.851c11.992,0,21.713-9.721,21.713-21.713    V130.23c4.787-2.685,7.8-8.157,6.62-14.272c-1.006-5.212-5.226-9.455-10.436-10.467c-8.565-1.664-16.061,4.85-16.061,13.116    c0,4.804,2.554,8.983,6.357,11.342v33.41c0,3.921-3.178,7.099-7.099,7.099h-22.139c-3.019,0-5.467-2.447-5.467-5.467V97.029    c4.597-2.776,7.426-8.183,6.219-14.18c-1.039-5.165-5.245-9.351-10.417-10.355c-8.564-1.662-16.059,4.852-16.059,13.116    c0,4.958,2.728,9.237,6.736,11.547v64.964c0,11.992,9.721,21.713,21.713,21.713h26.512v66.769c0,3.019-2.447,5.467-5.466,5.467    h-0.111c-3.019,0-5.466-2.447-5.466-5.467v-15.158c4.321-2.853,6.9-8.13,5.75-13.906c-1.04-5.224-5.361-9.456-10.603-10.405    c-8.488-1.536-15.877,4.944-15.877,13.15c0,5.151,2.943,9.569,7.21,11.804v69.897c0,10.011-8.34,17.967-18.342,17.555    c-0.119-0.005-0.237-0.01-0.356-0.015c-9.45-0.384-16.904-8.145-16.904-17.603V66.955c4.62-2.766,7.471-8.18,6.268-14.191    c-1.035-5.171-5.243-9.363-10.42-10.368c-8.563-1.662-16.058,4.852-16.058,13.116c0,4.939,2.708,9.205,6.69,11.522v137.864    c0,3.389-2.747,6.136-6.136,6.136h-0.124c-3.389,0-6.136-2.747-6.136-6.136v-34.334c4.154-2.921,6.591-8.121,5.406-13.803    c-1.078-5.169-5.37-9.334-10.565-10.279c-8.493-1.545-15.889,4.938-15.889,13.148c0,5.28,3.086,9.802,7.528,11.977v31.091    c0,11.992,9.721,21.713,21.713,21.713h4.203v81.547c0,9.435-7.439,17.177-16.866,17.553c-0.119,0.005-0.237,0.009-0.356,0.014    c-10.026,0.407-18.383-7.569-18.383-17.603v-48.546c4.438-2.849,7.102-8.217,5.875-14.11c-1.067-5.123-5.263-9.254-10.401-10.25    c-8.562-1.659-16.054,4.854-16.054,13.117c0,5.09,2.875,9.462,7.059,11.723v52.056c0,8.886-6.613,16.389-15.436,17.449    c-0.119,0.014-0.237,0.029-0.356,0.043c-10.526,1.272-19.813-6.874-19.813-17.476v-93.321h3.976    c11.992,0,21.713-9.721,21.713-21.713v-52.629c4.784-2.687,7.794-8.157,6.613-14.27c-1.007-5.211-5.226-9.453-10.436-10.466    c-8.565-1.664-16.061,4.85-16.061,13.116c0,4.807,2.557,8.987,6.364,11.345v55.216c0,3.327-2.697,6.023-6.023,6.023h-0.122    c-3.327,0-6.023-2.697-6.023-6.023v-29.606c3.831-2.891,6.102-7.742,5.137-13.106c-0.945-5.25-5.087-9.55-10.312-10.625    c-8.631-1.776-16.22,4.767-16.22,13.084c0,5.421,3.239,10.064,7.875,12.165l-0.37,223.715c71.052-12.333,139.412-12.333,210.464,0    V332.42c-0.025-0.004-0.05-0.008-0.075-0.012V170.099C407.21,167.744,409.781,163.557,409.781,158.738z"></path></svg>